<?xml version="1.0" standalone="no"?>
<!DOCTYPE svg PUBLIC "-//W3C//DTD SVG 20010904//EN"
 "http://www.w3.org/TR/2001/REC-SVG-20010904/DTD/svg10.dtd">
<svg version="1.0" xmlns="http://www.w3.org/2000/svg"
 width="390.000000pt" height="421.000000pt" viewBox="0 0 390.000000 421.000000"
 preserveAspectRatio="xMidYMid meet">

<g transform="translate(0.000000,421.000000) scale(0.100000,-0.100000)"
fill="#000000" stroke="none">
<path d="M1735 3985 c-326 -53 -606 -203 -791 -424 -318 -379 -325 -862 -19
-1341 69 -109 169 -230 369 -445 123 -133 186 -208 206 -249 32 -63 38 -113
18 -147 -11 -17 -10 -22 4 -33 12 -9 34 -94 78 -310 53 -253 60 -302 50 -322
-15 -27 -7 -54 15 -54 8 0 15 -2 15 -4 0 -26 44 -224 52 -233 12 -15 414 -19
437 -4 7 5 22 51 32 102 27 137 28 139 44 139 20 0 28 35 14 59 -11 16 -2 69
51 323 46 218 64 320 62 363 -5 105 19 141 260 401 86 93 182 201 213 239 361
450 448 901 250 1300 -159 322 -469 547 -870 630 -111 24 -373 29 -490 10z
m-111 -2677 c8 -51 28 -399 24 -404 -4 -4 -88 400 -88 424 0 7 13 12 30 12 25
0 30 -4 34 -32z m641 -35 c-7 -84 -35 -499 -35 -525 0 -17 -15 -18 -275 -18
-151 0 -275 3 -275 8 0 4 -9 133 -20 287 -11 154 -20 288 -20 298 0 16 22 17
316 17 l315 0 -6 -67z m85 60 c0 -24 -84 -423 -88 -419 -5 6 17 393 23 414 5
13 65 17 65 5z"/>
</g>
</svg>
