<?xml version="1.0" standalone="no"?>
<!DOCTYPE svg PUBLIC "-//W3C//DTD SVG 20010904//EN"
 "http://www.w3.org/TR/2001/REC-SVG-20010904/DTD/svg10.dtd">
<svg version="1.0" xmlns="http://www.w3.org/2000/svg"
 width="805.000000pt" height="310.000000pt" viewBox="0 0 805.000000 310.000000"
 preserveAspectRatio="xMidYMid meet">

<g transform="translate(0.000000,310.000000) scale(0.100000,-0.100000)"
fill="#000000" stroke="none">
<path d="M2574 2207 c-3 -8 -4 -47 -2 -88 l3 -74 84 -3 c61 -2 87 1 92 10 10
15 12 129 3 152 -8 21 -172 24 -180 3z"/>
<path d="M5154 2207 c-3 -8 -4 -47 -2 -88 l3 -74 65 -3 66 -3 0 -454 0 -455
-87 0 c-81 0 -87 -1 -93 -22 -8 -30 -8 -88 0 -127 l7 -31 263 0 264 0 10 26
c11 29 13 77 4 123 l-6 31 -87 0 -86 0 1 523 c0 287 -3 532 -7 545 -8 21 -12
22 -159 22 -117 0 -152 -3 -156 -13z"/>
<path d="M1397 1833 c-7 -24 -7 -1180 0 -1216 l5 -28 86 3 87 3 2 90 c1 50 2
129 2 178 l1 87 174 0 c115 0 177 4 181 11 4 6 7 49 6 95 l0 84 44 0 c45 0 45
0 47 38 0 20 0 61 -1 90 l-3 52 45 0 c45 0 45 0 52 39 3 22 3 60 0 85 l-7 46
-45 0 -45 0 3 53 c2 28 2 69 1 90 l-2 37 -46 0 -46 0 2 53 c2 28 2 69 1 90
l-1 37 -134 0 c-151 0 -146 2 -146 -78 0 -92 0 -92 102 -92 l90 0 -7 -50 c-4
-27 -4 -68 0 -90 7 -39 8 -40 48 -40 l42 0 0 -95 0 -95 -42 0 -42 0 -7 -45
c-3 -25 -3 -65 0 -90 l7 -45 -135 0 -135 0 -3 95 c-2 53 -2 136 0 185 l3 90
44 0 45 0 0 85 0 85 -45 0 -44 0 -3 88 -3 87 -87 3 c-76 2 -87 1 -91 -15z"/>
<path d="M2436 1834 c-3 -9 -6 -40 -6 -69 0 -82 3 -85 76 -85 l64 0 0 -275 0
-274 -87 -3 -88 -3 0 -85 0 -85 267 -3 268 -2 5 23 c3 12 5 52 3 87 l-3 65
-90 3 -90 3 2 337 c1 185 0 347 -3 360 -4 22 -7 22 -158 22 -131 0 -155 -2
-160 -16z"/>
<path d="M3249 1808 c-2 -24 -3 -62 -1 -85 l3 -43 44 0 44 0 3 -87 3 -88 43
-3 42 -3 0 -95 0 -94 -45 0 -45 0 0 -90 0 -90 -44 0 -44 0 -3 -42 c-2 -24 -2
-63 1 -88 l5 -45 87 -3 86 -3 7 31 c4 17 5 59 3 93 l-3 62 40 3 c22 2 43 9 48
15 4 7 6 46 5 87 l-3 75 55 0 55 0 -3 -75 c-1 -41 1 -80 5 -87 5 -6 22 -13 38
-15 l30 -3 -3 -72 c-6 -113 -6 -113 93 -113 98 0 98 0 93 110 l-3 65 -33 3
c-33 3 -34 4 -32 50 2 26 2 66 1 89 l-1 42 -56 3 -56 3 0 90 -1 90 56 3 57 3
1 42 c1 23 1 63 -1 89 -2 46 -1 47 32 50 l33 3 0 80 0 80 -90 0 -90 0 -1 -85
0 -85 -30 -3 c-16 -2 -32 -9 -37 -15 -4 -7 -6 -46 -5 -87 l3 -75 -55 0 -55 0
3 67 c6 96 0 108 -53 108 l-43 0 5 64 c3 35 3 76 -1 90 -6 26 -8 26 -95 26
l-89 0 -3 -42z"/>
<path d="M4290 1760 l0 -90 -55 0 -55 0 0 -90 0 -90 -35 0 -35 0 0 -85 0 -85
35 0 35 0 0 -90 0 -90 55 0 54 0 3 -92 3 -93 225 0 225 0 0 85 0 85 -190 3
-190 2 -1 95 0 95 238 0 238 0 -3 173 -2 172 -42 3 -43 3 0 90 0 89 -230 0
-230 0 0 -90z m363 -175 l0 -90 -145 -3 -144 -3 0 96 0 96 144 -3 145 -3 0
-90z"/>
<path d="M6054 1814 c-4 -20 -4 -60 0 -90 l6 -54 -44 0 c-44 0 -44 0 -51 -41
-4 -22 -4 -60 0 -85 l6 -44 45 0 44 0 -6 -54 c-4 -30 -4 -70 0 -90 l7 -36 179
0 179 0 0 -95 0 -95 -202 -2 -202 -3 0 -85 0 -85 247 -3 247 -2 6 42 c4 24 5
66 3 93 l-3 50 40 3 c22 2 43 9 47 15 9 14 10 119 2 141 -4 11 -19 16 -51 16
l-45 0 7 50 c4 27 4 68 0 90 l-7 40 -178 0 -178 0 0 95 0 95 204 0 204 0 0 85
0 85 -250 0 -249 0 -7 -36z"/>
</g>
</svg>
