<?xml version="1.0" standalone="no"?>
<!DOCTYPE svg PUBLIC "-//W3C//DTD SVG 20010904//EN"
 "http://www.w3.org/TR/2001/REC-SVG-20010904/DTD/svg10.dtd">
<svg version="1.0" xmlns="http://www.w3.org/2000/svg"
 width="776.000000pt" height="281.000000pt" viewBox="0 0 776.000000 281.000000"
 preserveAspectRatio="xMidYMid meet">

<g transform="translate(0.000000,281.000000) scale(0.100000,-0.100000)"
fill="#000000" stroke="none">
<path d="M6398 1936 c-110 -32 -211 -101 -264 -180 -97 -147 -88 -349 23 -467
61 -65 124 -90 250 -99 120 -9 156 -25 151 -68 -2 -19 -13 -32 -38 -45 -61
-31 -247 -7 -366 47 l-52 24 -5 -47 c-22 -172 -30 -292 -21 -301 17 -17 204
-81 281 -96 115 -22 282 6 379 62 53 31 136 119 164 173 32 64 53 175 45 246
-8 78 -55 175 -100 210 -67 50 -120 67 -244 75 -136 8 -161 18 -161 61 0 25 6
33 38 47 52 23 205 20 295 -6 48 -14 70 -16 73 -8 8 22 34 318 29 327 -3 5
-36 18 -73 30 -85 27 -329 36 -404 15z"/>
<path d="M1050 1930 c-91 -12 -205 -39 -223 -53 -13 -10 -15 -91 -18 -597 l-4
-585 195 0 195 0 3 197 2 198 58 0 c134 0 317 67 402 146 93 87 125 171 118
308 -9 179 -108 293 -318 368 -63 23 -296 33 -410 18z m322 -359 c29 -26 33
-36 33 -79 0 -84 -62 -142 -152 -142 l-43 0 0 79 c0 43 3 99 6 125 l7 46 58 0
c51 0 63 -4 91 -29z"/>
<path d="M2915 1886 c-128 -32 -169 -46 -167 -57 2 -8 64 -123 137 -257 l134
-243 -146 -232 c-80 -128 -148 -239 -150 -248 -4 -12 33 -29 169 -77 96 -34
176 -62 179 -62 2 0 42 74 89 165 47 91 88 165 91 165 4 0 39 -74 79 -165 40
-91 75 -165 78 -165 14 0 328 103 335 109 4 4 -53 117 -128 250 -75 133 -134
249 -131 257 3 8 76 136 162 285 86 148 154 272 153 274 -5 4 -342 45 -372 45
-19 0 -31 -21 -91 -160 -38 -88 -72 -160 -76 -160 -3 0 -35 72 -70 160 -54
134 -68 160 -85 159 -11 -1 -96 -20 -190 -43z"/>
<path d="M5106 1922 c-8 -14 -31 -1151 -23 -1158 9 -9 688 42 697 53 10 10 41
353 34 364 -3 5 -77 6 -164 2 -142 -5 -160 -4 -166 10 -7 20 10 272 37 531 10
103 16 192 13 197 -7 11 -421 12 -428 1z"/>
<path d="M4049 1828 c0 -51 -6 -320 -13 -598 -7 -278 -10 -508 -8 -512 4 -9
286 -8 542 1 l175 6 6 60 c4 33 9 115 13 182 l7 123 -178 2 -178 3 4 55 c1 30
5 57 7 59 2 2 58 6 124 9 66 3 122 8 124 11 2 3 7 61 11 128 l7 122 -124 3
-123 3 3 50 c2 28 5 51 6 52 1 1 67 5 146 8 80 3 159 8 177 11 l31 5 6 107 c4
59 9 128 12 155 l5 47 -391 0 -390 0 -1 -92z"/>
<path d="M2255 1880 c-60 -4 -129 -8 -152 -9 l-43 -1 0 -571 0 -572 173 7 c94
4 175 10 178 14 4 4 25 246 48 537 23 292 44 547 47 568 l6 37 -74 -2 c-40 -1
-122 -5 -183 -8z"/>
</g>
</svg>
